<svg xmlns="http://www.w3.org/2000/svg" xml:space="preserve" width="9.648" height="14.4" style="shape-rendering:geometricPrecision;text-rendering:geometricPrecision;image-rendering:optimizeQuality;fill-rule:evenodd;clip-rule:evenodd" viewBox="0 0 36.77 54.88"><path d="M15.8 54.88c-.41 0-.77-.14-1.1-.43-.29-.29-.43-.65-.43-1.1v-4.21c-3.01-.37-5.59-1.14-7.74-2.32-2.11-1.18-3.72-2.6-4.82-4.27C.65 40.84.08 39.03 0 37.12c0-.32.12-.61.37-.85.29-.29.61-.43.98-.43h7.68c.49 0 .87.1 1.16.31.33.16.65.43.98.79.53 1.06 1.36 1.93 2.5 2.62 1.18.69 2.76 1.04 4.76 1.04 2.32 0 4.09-.37 5.31-1.1 1.22-.73 1.83-1.73 1.83-2.99 0-.89-.33-1.63-.98-2.2-.61-.57-1.59-1.08-2.93-1.52-1.34-.45-3.33-.96-5.98-1.53-4.92-.98-8.58-2.46-10.98-4.45-2.4-1.99-3.6-4.82-3.6-8.48 0-3.25 1.18-6.02 3.54-8.29C7 7.72 10.21 6.3 14.27 5.77V1.5c0-.45.14-.81.43-1.1.32-.29.69-.43 1.1-.43h5.06c.45 0 .81.14 1.1.43.29.28.43.65.43 1.1v4.39c2.68.45 4.98 1.3 6.89 2.56 1.95 1.22 3.44 2.62 4.45 4.21 1.02 1.58 1.56 3.15 1.65 4.69 0 .33-.12.63-.37.91-.24.24-.55.37-.91.37h-8.05c-.49 0-.89-.08-1.22-.24-.29-.16-.55-.43-.79-.79-.24-.93-.91-1.73-2.01-2.38-1.06-.65-2.38-.98-3.96-.98-1.83 0-3.23.33-4.21.98-.98.65-1.46 1.61-1.46 2.87 0 .85.26 1.57.79 2.13.57.57 1.46 1.1 2.68 1.59 1.26.45 3.05.91 5.37 1.4 3.78.69 6.79 1.57 9.03 2.62 2.24 1.02 3.88 2.34 4.94 3.96 1.06 1.63 1.58 3.7 1.58 6.22 0 3.58-1.3 6.51-3.9 8.78-2.6 2.28-6.1 3.7-10.49 4.27v4.27c0 .45-.14.81-.43 1.1-.28.29-.65.43-1.1.43h-5.06z" style="fill:#2959ce;fill-rule:nonzero"/></svg>