<svg width="262" height="19" viewBox="0 0 262 19" fill="none" xmlns="http://www.w3.org/2000/svg">
<path d="M1.28 18C1.104 18 0.96 17.944 0.848 17.832C0.736 17.72 0.68 17.576 0.68 17.4V1.8C0.68 1.624 0.736 1.48 0.848 1.368C0.96 1.256 1.104 1.2 1.28 1.2H3.824C4.096 1.2 4.288 1.264 4.4 1.392C4.528 1.504 4.608 1.592 4.64 1.656L10.496 10.896V1.8C10.496 1.624 10.552 1.48 10.664 1.368C10.776 1.256 10.92 1.2 11.096 1.2H13.976C14.152 1.2 14.296 1.256 14.408 1.368C14.52 1.48 14.576 1.624 14.576 1.8V17.4C14.576 17.56 14.52 17.704 14.408 17.832C14.296 17.944 14.152 18 13.976 18H11.408C11.152 18 10.96 17.936 10.832 17.808C10.72 17.68 10.648 17.592 10.616 17.544L4.76 8.664V17.4C4.76 17.576 4.704 17.72 4.592 17.832C4.48 17.944 4.336 18 4.16 18H1.28ZM16.97 18C16.842 18 16.722 17.952 16.61 17.856C16.514 17.744 16.466 17.624 16.466 17.496C16.466 17.416 16.474 17.344 16.49 17.28L22.13 1.872C22.178 1.696 22.274 1.544 22.418 1.416C22.578 1.272 22.794 1.2 23.066 1.2H26.618C26.89 1.2 27.098 1.272 27.242 1.416C27.402 1.544 27.506 1.696 27.554 1.872L33.17 17.28C33.202 17.344 33.218 17.416 33.218 17.496C33.218 17.624 33.162 17.744 33.05 17.856C32.954 17.952 32.834 18 32.69 18H29.738C29.498 18 29.314 17.944 29.186 17.832C29.074 17.704 29.002 17.592 28.97 17.496L28.034 15.048H21.626L20.714 17.496C20.682 17.592 20.61 17.704 20.498 17.832C20.386 17.944 20.194 18 19.922 18H16.97ZM22.61 11.592H27.074L24.818 5.256L22.61 11.592ZM35.7097 18C35.5497 18 35.4057 17.944 35.2777 17.832C35.1657 17.72 35.1097 17.576 35.1097 17.4V1.8C35.1097 1.624 35.1657 1.48 35.2777 1.368C35.4057 1.256 35.5497 1.2 35.7097 1.2H38.3017C38.5577 1.2 38.7497 1.272 38.8777 1.416C39.0217 1.544 39.1097 1.648 39.1417 1.728L43.3657 9.312L47.5897 1.728C47.6377 1.648 47.7177 1.544 47.8297 1.416C47.9577 1.272 48.1577 1.2 48.4297 1.2H50.9977C51.1737 1.2 51.3177 1.256 51.4297 1.368C51.5577 1.48 51.6217 1.624 51.6217 1.8V17.4C51.6217 17.576 51.5577 17.72 51.4297 17.832C51.3177 17.944 51.1737 18 50.9977 18H48.1417C47.9657 18 47.8137 17.944 47.6857 17.832C47.5737 17.72 47.5177 17.576 47.5177 17.4V8.4L44.8057 13.416C44.7417 13.56 44.6457 13.688 44.5177 13.8C44.3897 13.912 44.2137 13.968 43.9897 13.968H42.7417C42.5177 13.968 42.3417 13.912 42.2137 13.8C42.0857 13.688 41.9817 13.56 41.9017 13.416L39.1897 8.4V17.4C39.1897 17.576 39.1337 17.72 39.0217 17.832C38.9097 17.944 38.7657 18 38.5897 18H35.7097ZM54.0013 18C53.8733 18 53.7533 17.952 53.6413 17.856C53.5453 17.744 53.4973 17.624 53.4973 17.496C53.4973 17.416 53.5053 17.344 53.5213 17.28L59.1613 1.872C59.2093 1.696 59.3053 1.544 59.4492 1.416C59.6093 1.272 59.8253 1.2 60.0973 1.2H63.6493C63.9213 1.2 64.1293 1.272 64.2733 1.416C64.4333 1.544 64.5373 1.696 64.5853 1.872L70.2013 17.28C70.2333 17.344 70.2493 17.416 70.2493 17.496C70.2493 17.624 70.1933 17.744 70.0813 17.856C69.9853 17.952 69.8653 18 69.7213 18H66.7693C66.5293 18 66.3453 17.944 66.2173 17.832C66.1053 17.704 66.0333 17.592 66.0013 17.496L65.0653 15.048H58.6573L57.7453 17.496C57.7133 17.592 57.6413 17.704 57.5293 17.832C57.4173 17.944 57.2253 18 56.9533 18H54.0013ZM59.6413 11.592H64.1053L61.8493 5.256L59.6413 11.592ZM72.7409 18C72.5649 18 72.4209 17.944 72.3089 17.832C72.1969 17.72 72.1409 17.576 72.1409 17.4V1.8C72.1409 1.624 72.1969 1.48 72.3089 1.368C72.4209 1.256 72.5649 1.2 72.7409 1.2H75.2849C75.5569 1.2 75.7489 1.264 75.8609 1.392C75.9889 1.504 76.0689 1.592 76.1009 1.656L81.9569 10.896V1.8C81.9569 1.624 82.0129 1.48 82.1249 1.368C82.2369 1.256 82.3809 1.2 82.5569 1.2H85.4369C85.6129 1.2 85.7569 1.256 85.8689 1.368C85.9809 1.48 86.0369 1.624 86.0369 1.8V17.4C86.0369 17.56 85.9809 17.704 85.8689 17.832C85.7569 17.944 85.6129 18 85.4369 18H82.8689C82.6129 18 82.4209 17.936 82.2929 17.808C82.1809 17.68 82.1089 17.592 82.0769 17.544L76.2209 8.664V17.4C76.2209 17.576 76.1649 17.72 76.0529 17.832C75.9409 17.944 75.7969 18 75.6209 18H72.7409ZM96.3269 18.24C94.8069 18.24 93.4949 17.992 92.3909 17.496C91.3029 16.984 90.4549 16.248 89.8469 15.288C89.2549 14.312 88.9269 13.128 88.8629 11.736C88.8469 11.048 88.8389 10.32 88.8389 9.552C88.8389 8.768 88.8469 8.024 88.8629 7.32C88.9269 5.96 89.2629 4.808 89.8709 3.864C90.4789 2.92 91.3349 2.2 92.4389 1.704C93.5429 1.208 94.8389 0.959999 96.3269 0.959999C97.5269 0.959999 98.5909 1.112 99.5189 1.416C100.447 1.704 101.223 2.096 101.847 2.592C102.487 3.088 102.967 3.632 103.287 4.224C103.623 4.816 103.799 5.4 103.815 5.976C103.831 6.12 103.783 6.24 103.671 6.336C103.575 6.432 103.455 6.48 103.311 6.48H99.8069C99.6309 6.48 99.4949 6.456 99.3989 6.408C99.3189 6.344 99.2469 6.256 99.1829 6.144C99.0709 5.904 98.9029 5.656 98.6789 5.4C98.4709 5.128 98.1749 4.896 97.7909 4.704C97.4229 4.512 96.9349 4.416 96.3269 4.416C95.4149 4.416 94.6949 4.656 94.1669 5.136C93.6549 5.616 93.3749 6.384 93.3269 7.44C93.2789 8.816 93.2789 10.208 93.3269 11.616C93.3749 12.736 93.6709 13.544 94.2149 14.04C94.7589 14.536 95.4789 14.784 96.3749 14.784C96.9829 14.784 97.5189 14.68 97.9829 14.472C98.4629 14.264 98.8389 13.944 99.1109 13.512C99.3829 13.064 99.5189 12.496 99.5189 11.808V11.352H97.2629C97.0869 11.352 96.9349 11.296 96.8069 11.184C96.6949 11.056 96.6389 10.904 96.6389 10.728V8.952C96.6389 8.776 96.6949 8.632 96.8069 8.52C96.9349 8.392 97.0869 8.328 97.2629 8.328H103.311C103.487 8.328 103.631 8.392 103.743 8.52C103.855 8.632 103.911 8.776 103.911 8.952V11.688C103.911 13.064 103.599 14.24 102.975 15.216C102.351 16.192 101.463 16.944 100.311 17.472C99.1749 17.984 97.8469 18.24 96.3269 18.24ZM105.4 18C105.272 18 105.152 17.952 105.04 17.856C104.944 17.744 104.896 17.624 104.896 17.496C104.896 17.416 104.904 17.344 104.92 17.28L110.56 1.872C110.608 1.696 110.704 1.544 110.848 1.416C111.008 1.272 111.224 1.2 111.496 1.2H115.048C115.32 1.2 115.528 1.272 115.672 1.416C115.832 1.544 115.936 1.696 115.984 1.872L121.6 17.28C121.632 17.344 121.648 17.416 121.648 17.496C121.648 17.624 121.592 17.744 121.48 17.856C121.384 17.952 121.264 18 121.12 18H118.168C117.928 18 117.744 17.944 117.616 17.832C117.504 17.704 117.432 17.592 117.4 17.496L116.464 15.048H110.056L109.144 17.496C109.112 17.592 109.04 17.704 108.928 17.832C108.816 17.944 108.624 18 108.352 18H105.4ZM111.04 11.592H115.504L113.248 5.256L111.04 11.592ZM124.139 18C123.963 18 123.819 17.944 123.707 17.832C123.595 17.72 123.539 17.576 123.539 17.4V1.8C123.539 1.624 123.595 1.48 123.707 1.368C123.819 1.256 123.963 1.2 124.139 1.2H126.683C126.955 1.2 127.147 1.264 127.259 1.392C127.387 1.504 127.467 1.592 127.499 1.656L133.355 10.896V1.8C133.355 1.624 133.411 1.48 133.523 1.368C133.635 1.256 133.779 1.2 133.955 1.2H136.835C137.011 1.2 137.155 1.256 137.267 1.368C137.379 1.48 137.435 1.624 137.435 1.8V17.4C137.435 17.56 137.379 17.704 137.267 17.832C137.155 17.944 137.011 18 136.835 18H134.267C134.011 18 133.819 17.936 133.691 17.808C133.579 17.68 133.507 17.592 133.475 17.544L127.619 8.664V17.4C127.619 17.576 127.563 17.72 127.451 17.832C127.339 17.944 127.195 18 127.019 18H124.139ZM141.389 18C141.213 18 141.069 17.944 140.957 17.832C140.845 17.72 140.789 17.576 140.789 17.4V1.8C140.789 1.624 140.845 1.48 140.957 1.368C141.069 1.256 141.213 1.2 141.389 1.2H144.557C144.717 1.2 144.853 1.256 144.965 1.368C145.093 1.48 145.157 1.624 145.157 1.8V14.376H152.405C152.581 14.376 152.725 14.44 152.837 14.568C152.965 14.68 153.029 14.824 153.029 15V17.4C153.029 17.576 152.965 17.72 152.837 17.832C152.725 17.944 152.581 18 152.405 18H141.389ZM155.71 18C155.534 18 155.39 17.944 155.278 17.832C155.166 17.72 155.11 17.576 155.11 17.4V1.8C155.11 1.624 155.166 1.48 155.278 1.368C155.39 1.256 155.534 1.2 155.71 1.2H158.926C159.102 1.2 159.246 1.256 159.358 1.368C159.47 1.48 159.526 1.624 159.526 1.8V17.4C159.526 17.576 159.47 17.72 159.358 17.832C159.246 17.944 159.102 18 158.926 18H155.71ZM163.491 18C163.315 18 163.171 17.944 163.059 17.832C162.947 17.72 162.891 17.576 162.891 17.4V1.8C162.891 1.624 162.947 1.48 163.059 1.368C163.171 1.256 163.315 1.2 163.491 1.2H166.515C166.691 1.2 166.835 1.256 166.947 1.368C167.059 1.48 167.115 1.624 167.115 1.8V7.128L171.555 1.656C171.619 1.56 171.723 1.464 171.867 1.368C172.027 1.256 172.235 1.2 172.491 1.2H175.947C176.091 1.2 176.211 1.256 176.307 1.368C176.403 1.464 176.451 1.576 176.451 1.704C176.451 1.816 176.419 1.912 176.355 1.992L170.619 9.24L176.811 17.208C176.875 17.272 176.907 17.368 176.907 17.496C176.907 17.624 176.851 17.744 176.739 17.856C176.643 17.952 176.531 18 176.403 18H172.827C172.539 18 172.315 17.936 172.155 17.808C172.011 17.68 171.915 17.584 171.867 17.52L167.115 11.592V17.4C167.115 17.576 167.059 17.72 166.947 17.832C166.835 17.944 166.691 18 166.515 18H163.491ZM179.382 18C179.206 18 179.062 17.944 178.95 17.832C178.838 17.72 178.782 17.576 178.782 17.4V1.8C178.782 1.624 178.838 1.48 178.95 1.368C179.062 1.256 179.206 1.2 179.382 1.2H182.55C182.71 1.2 182.846 1.256 182.958 1.368C183.086 1.48 183.15 1.624 183.15 1.8V14.376H190.398C190.574 14.376 190.718 14.44 190.83 14.568C190.958 14.68 191.022 14.824 191.022 15V17.4C191.022 17.576 190.958 17.72 190.83 17.832C190.718 17.944 190.574 18 190.398 18H179.382ZM192.142 18C192.014 18 191.894 17.952 191.782 17.856C191.686 17.744 191.638 17.624 191.638 17.496C191.638 17.416 191.646 17.344 191.662 17.28L197.302 1.872C197.35 1.696 197.446 1.544 197.59 1.416C197.75 1.272 197.966 1.2 198.238 1.2H201.79C202.062 1.2 202.27 1.272 202.414 1.416C202.574 1.544 202.678 1.696 202.726 1.872L208.342 17.28C208.374 17.344 208.39 17.416 208.39 17.496C208.39 17.624 208.334 17.744 208.222 17.856C208.126 17.952 208.006 18 207.862 18H204.91C204.67 18 204.486 17.944 204.358 17.832C204.246 17.704 204.174 17.592 204.142 17.496L203.206 15.048H196.798L195.886 17.496C195.854 17.592 195.782 17.704 195.67 17.832C195.558 17.944 195.366 18 195.094 18H192.142ZM197.782 11.592H202.246L199.99 5.256L197.782 11.592ZM210.882 18C210.706 18 210.562 17.944 210.45 17.832C210.338 17.72 210.282 17.576 210.282 17.4V1.8C210.282 1.624 210.338 1.48 210.45 1.368C210.562 1.256 210.706 1.2 210.882 1.2H217.41C219.474 1.2 221.098 1.68 222.282 2.64C223.482 3.584 224.082 4.928 224.082 6.672C224.082 7.808 223.802 8.768 223.242 9.552C222.698 10.336 221.978 10.928 221.082 11.328L224.394 17.232C224.442 17.328 224.466 17.416 224.466 17.496C224.466 17.624 224.41 17.744 224.298 17.856C224.202 17.952 224.082 18 223.938 18H220.77C220.466 18 220.242 17.928 220.098 17.784C219.954 17.624 219.85 17.48 219.786 17.352L217.05 12.072H214.578V17.4C214.578 17.576 214.522 17.72 214.41 17.832C214.298 17.944 214.154 18 213.978 18H210.882ZM214.578 8.688H217.362C218.114 8.688 218.674 8.504 219.042 8.136C219.426 7.768 219.618 7.264 219.618 6.624C219.618 6 219.434 5.496 219.066 5.112C218.714 4.728 218.146 4.536 217.362 4.536H214.578V8.688ZM231.913 18C231.737 18 231.585 17.944 231.457 17.832C231.345 17.72 231.289 17.576 231.289 17.4V15.696C231.289 15.584 231.321 15.416 231.385 15.192C231.449 14.952 231.617 14.728 231.889 14.52L234.385 12.072C235.665 11.096 236.713 10.272 237.529 9.6C238.361 8.912 238.977 8.304 239.377 7.776C239.777 7.248 239.977 6.752 239.977 6.288C239.977 5.744 239.833 5.296 239.545 4.944C239.273 4.576 238.793 4.392 238.105 4.392C237.641 4.392 237.249 4.496 236.929 4.704C236.625 4.896 236.393 5.152 236.233 5.472C236.073 5.792 235.961 6.12 235.897 6.456C235.833 6.664 235.721 6.808 235.561 6.888C235.417 6.968 235.257 7.008 235.081 7.008H232.081C231.937 7.008 231.817 6.96 231.721 6.864C231.625 6.768 231.577 6.648 231.577 6.504C231.593 5.736 231.753 5.016 232.057 4.344C232.377 3.672 232.817 3.08 233.377 2.568C233.953 2.04 234.633 1.632 235.417 1.344C236.217 1.056 237.113 0.912 238.105 0.912C239.465 0.912 240.617 1.128 241.561 1.56C242.521 1.992 243.249 2.6 243.745 3.384C244.241 4.152 244.489 5.056 244.489 6.096C244.489 6.88 244.313 7.616 243.961 8.304C243.625 8.976 243.137 9.624 242.497 10.248C241.873 10.856 241.129 11.488 240.265 12.144L238.057 14.376H244.225C244.401 14.376 244.545 14.432 244.657 14.544C244.785 14.656 244.849 14.8 244.849 14.976V17.4C244.849 17.576 244.785 17.72 244.657 17.832C244.545 17.944 244.401 18 244.225 18H231.913ZM254.969 18C254.809 18 254.665 17.944 254.537 17.832C254.425 17.72 254.369 17.576 254.369 17.4V14.688H246.905C246.745 14.688 246.601 14.632 246.473 14.52C246.361 14.408 246.305 14.264 246.305 14.088V11.808C246.305 11.664 246.329 11.536 246.377 11.424C246.441 11.296 246.505 11.176 246.569 11.064L253.553 1.608C253.761 1.336 254.057 1.2 254.441 1.2H257.921C258.097 1.2 258.241 1.256 258.353 1.368C258.481 1.48 258.545 1.624 258.545 1.8V11.112H260.657C260.849 11.112 261.001 11.176 261.113 11.304C261.225 11.416 261.281 11.552 261.281 11.712V14.088C261.281 14.264 261.217 14.408 261.089 14.52C260.977 14.632 260.841 14.688 260.681 14.688H258.545V17.4C258.545 17.576 258.481 17.72 258.353 17.832C258.241 17.944 258.097 18 257.921 18H254.969ZM250.433 11.28H254.465V5.616L250.433 11.28Z" fill="#7296EE"/>
</svg>
